grf
version=1
nRows=7
nColumns=37
inDegrees=no
endheader
time	ground_force_1_vx	ground_force_1_vy	ground_force_1_vz	ground_force_1_px	ground_force_1_py	ground_force_1_pz	ground_moment_1_mx	ground_moment_1_my	ground_moment_1_mz	ground_force_2_vx	ground_force_2_vy	ground_force_2_vz	ground_force_2_px	ground_force_2_py	ground_force_2_pz	ground_moment_2_mx	ground_moment_2_my	ground_moment_2_mz	ground_force_3_vx	ground_force_3_vy	ground_force_3_vz	ground_force_3_px	ground_force_3_py	ground_force_3_pz	ground_moment_3_mx	ground_moment_3_my	ground_moment_3_mz	ground_force_4_vx	ground_force_4_vy	ground_force_4_vz	ground_force_4_px	ground_force_4_py	ground_force_4_pz	ground_moment_4_mx	ground_moment_4_my	ground_moment_4_mz
      0.00000000	      0.00000000	     -0.00000000	      0.00000000	      0.00000000	      0.00000000	      0.00000000	      0.00000000	      0.00000000	      0.00000000	      7.80435848	     19.21228027	   -548.47607422	   -363.22038247	  -1058.85875281	      0.00000000	      0.00000000	      0.00000000	   1052.94820605	     -2.43787320	    -33.60473230	   -264.29458618	   -333.60595127	   -741.11035137	      0.00000000	      0.00000000	     -0.00000000	  -1346.12044887	      0.00000000	     -0.00000000	      0.00000000	      0.00000000	      0.00000000	      0.00000000	      0.00000000	      0.00000000	      0.00000000
      0.01000000	      0.00000000	     -0.00000000	      0.00000000	      0.00000000	      0.00000000	      0.00000000	      0.00000000	      0.00000000	      0.00000000	      7.70924282	     18.76344109	   -547.79394531	   -363.05480255	  -1057.85150845	      0.00000000	      0.00000000	      0.00000000	   1103.89340652	     -2.61857996	    -33.78785301	   -264.82516479	   -333.69746392	   -741.46245611	      0.00000000	      0.00000000	     -0.00000000	  -1395.44492917	      0.00000000	     -0.00000000	      0.00000000	      0.00000000	      0.00000000	      0.00000000	      0.00000000	      0.00000000	      0.00000000
      0.02000000	      0.00000000	     -0.00000000	      0.00000000	      0.00000000	      0.00000000	      0.00000000	      0.00000000	      0.00000000	      0.00000000	      7.45337105	     18.94735909	   -548.31750488	   -362.70250814	  -1057.99284321	      0.00000000	      0.00000000	      0.00000000	   1001.78882660	     -2.88774477	    -33.91861318	   -266.06573486	   -332.81019225	   -741.49392781	      0.00000000	      0.00000000	     -0.00000000	  -1349.69073908	      0.00000000	     -0.00000000	      0.00000000	      0.00000000	      0.00000000	      0.00000000	      0.00000000	      0.00000000	      0.00000000
      0.03000000	      0.00000000	     -0.00000000	      0.00000000	      0.00000000	      0.00000000	      0.00000000	      0.00000000	      0.00000000	      0.00000000	      8.21280003	     18.58233070	   -549.37677002	   -362.43719218	  -1057.74468772	      0.00000000	      0.00000000	      0.00000000	   1006.65503762	     -3.32518279	    -34.04360551	   -265.58206177	   -332.30455270	   -742.04105850	      0.00000000	      0.00000000	     -0.00000000	  -1415.23922008	      0.00000000	     -0.00000000	      0.00000000	      0.00000000	      0.00000000	      0.00000000	      0.00000000	      0.00000000	      0.00000000
      0.04000000	      0.00000000	     -0.00000000	      0.00000000	      0.00000000	      0.00000000	      0.00000000	      0.00000000	      0.00000000	      0.00000000	      8.29398537	     18.49844360	   -548.68041992	   -362.55799626	  -1057.32195942	      0.00000000	      0.00000000	      0.00000000	    902.34606768	     -3.68573891	    -33.96390883	   -264.99496460	   -332.01303058	   -741.29589193	      0.00000000	      0.00000000	     -0.00000000	  -1448.76911885	      0.00000000	     -0.00000000	      0.00000000	      0.00000000	      0.00000000	      0.00000000	      0.00000000	      0.00000000	      0.00000000
      0.05000000	      0.00000000	     -0.00000000	      0.00000000	      0.00000000	      0.00000000	      0.00000000	      0.00000000	      0.00000000	      0.00000000	      8.42915535	     18.45246506	   -552.17236328	   -361.87828083	  -1058.31379344	      0.00000000	      0.00000000	      0.00000000	    917.32253155	     -4.17211157	    -33.38021814	   -264.31838989	   -330.12348782	   -741.67578076	      0.00000000	      0.00000000	     -0.00000000	  -1387.54827945	      0.00000000	     -0.00000000	      0.00000000	      0.00000000	      0.00000000	      0.00000000	      0.00000000	      0.00000000	      0.00000000
      0.06000000	      0.00000000	     -0.00000000	      0.00000000	      0.00000000	      0.00000000	      0.00000000	      0.00000000	      0.00000000	      0.00000000	      8.51610947	     17.82375336	   -552.56390381	   -361.83620898	  -1058.34722580	      0.00000000	      0.00000000	      0.00000000	    801.07728689	     -4.16940972	    -32.36862528	   -262.04333496	   -329.82774205	   -742.60647844	      0.00000000	      0.00000000	     -0.00000000	  -1505.99696350	      0.00000000	     -0.00000000	      0.00000000	      0.00000000	      0.00000000	      0.00000000	      0.00000000	      0.00000000	      0.00000000
